<svg version="1.1"
     xmlns="http://www.w3.org/2000/svg"
     xmlns:xlink="http://www.w3.org/1999/xlink"
     xmlns:ev="http://www.w3.org/2001/xml-events"
	 viewBox="0 0 123 69">
	<g id="surface1">
		<path style=" stroke:none;fill-rule:nonzero;fill:#000;fill-opacity:1;" d="M 40.183594 45.839844 L 34.789062 45.839844 L 34.789062 68.558594 L 40.183594 68.558594 Z M 40.183594 45.839844 " />
		<path style=" stroke:none;fill-rule:nonzero;fill:#000;fill-opacity:1;" d="M 83.667969 52.347656 C 83.453125 52.230469 81.71875 51.136719 79.136719 51.136719 C 75.644531 51.136719 73.226562 53.714844 73.226562 57.195312 C 73.226562 60.570312 75.542969 63.261719 79.136719 63.261719 C 81.671875 63.261719 83.4375 62.191406 83.667969 62.054688 L 83.667969 68.152344 C 83 68.351562 81.160156 68.960938 78.75 68.960938 C 72.6875 68.960938 67.371094 64.515625 67.371094 57.195312 C 67.371094 50.410156 72.1875 45.4375 78.75 45.4375 C 81.289062 45.4375 83.160156 46.09375 83.667969 46.25 Z M 83.667969 52.347656 " />
		<path style=" stroke:none;fill-rule:nonzero;fill:#000;fill-opacity:1;" d="M 27.375 52.347656 C 27.15625 52.230469 25.421875 51.136719 22.84375 51.136719 C 19.347656 51.136719 16.933594 53.714844 16.933594 57.195312 C 16.933594 60.570312 19.25 63.261719 22.84375 63.261719 C 25.378906 63.261719 27.140625 62.191406 27.375 62.054688 L 27.375 68.152344 C 26.703125 68.351562 24.863281 68.960938 22.457031 68.960938 C 16.390625 68.960938 11.074219 64.515625 11.074219 57.195312 C 11.074219 50.410156 15.890625 45.4375 22.457031 45.4375 C 24.992188 45.4375 26.867188 46.09375 27.375 46.25 Z M 27.375 52.347656 " />
		<path style=" stroke:none;fill-rule:nonzero;fill:#000;fill-opacity:1;" d="M 100.636719 51.222656 C 97.433594 51.222656 95.058594 53.898438 95.058594 57.195312 C 95.058594 60.5 97.433594 63.175781 100.636719 63.175781 C 103.832031 63.175781 106.214844 60.5 106.214844 57.195312 C 106.214844 53.898438 103.832031 51.222656 100.636719 51.222656 M 111.929688 57.195312 C 111.929688 63.695312 107.207031 68.960938 100.636719 68.960938 C 94.0625 68.960938 89.347656 63.695312 89.347656 57.195312 C 89.347656 50.707031 94.0625 45.4375 100.636719 45.4375 C 107.207031 45.4375 111.929688 50.707031 111.929688 57.195312 " />
		<path style=" stroke:none;fill-rule:nonzero;fill:#000;fill-opacity:1;" d="M 60.632812 51.003906 C 60.554688 50.976562 58.285156 50.308594 56.417969 50.308594 C 54.257812 50.308594 53.082031 51.078125 53.082031 52.171875 C 53.082031 53.554688 54.667969 54.039062 55.554688 54.335938 L 57.042969 54.839844 C 60.542969 56.023438 62.136719 58.570312 62.136719 61.335938 C 62.136719 67.042969 57.417969 68.960938 53.289062 68.960938 C 50.421875 68.960938 47.734375 68.398438 47.46875 68.339844 L 47.46875 63.113281 C 47.941406 63.238281 50.207031 63.957031 52.5625 63.957031 C 55.246094 63.957031 56.476562 63.125 56.476562 61.835938 C 56.476562 60.683594 55.410156 60.019531 54.074219 59.574219 C 53.746094 59.457031 53.257812 59.292969 52.921875 59.179688 C 49.917969 58.167969 47.414062 56.292969 47.414062 52.53125 C 47.414062 48.28125 50.40625 45.429688 55.378906 45.429688 C 58.003906 45.429688 60.472656 46.109375 60.632812 46.152344 Z M 60.632812 51.003906 " />
		<path style=" stroke:none;fill-rule:nonzero;fill:#000;fill-opacity:1;" d="M 5.355469 21.425781 C 5.355469 19.859375 4.152344 18.589844 2.679688 18.589844 C 1.203125 18.589844 0 19.859375 0 21.425781 L 0 27.386719 C 0 28.964844 1.203125 30.234375 2.679688 30.234375 C 4.152344 30.234375 5.355469 28.964844 5.355469 27.386719 Z M 5.355469 21.425781 ">
			<animateTransform attributeName="transform" class="icon-logo-cisco-aside-left" id="firstAnimation" from="0 0" to="0 0" values="0 0; 0 8; 0 -8; 0 4; 0 0" keyTimes="0; 0.4; 0.8; 0.9; 1" begin="0s" dur="0.6s" restart="whenNotActive" />
		</path>
		<path style=" stroke:none;fill-rule:nonzero;fill:black;fill-opacity:1;" d="M 20.0625 13.597656 C 20.0625 12.035156 18.859375 10.761719 17.386719 10.761719 C 15.910156 10.761719 14.707031 12.035156 14.707031 13.597656 L 14.707031 27.390625 C 14.707031 28.964844 15.910156 30.234375 17.386719 30.234375 C 18.859375 30.234375 20.0625 28.964844 20.0625 27.390625 Z M 20.0625 13.597656 ">
			<animateTransform attributeName="transform"  type="translate" from="0 0" to="0 0" values="0 0; 0 8; 0 -8; 0 4; 0 0" keyTimes="0; 0.4; 0.8; 0.9; 1" begin="firstAnimation.begin+0.1s" dur="0.6s" restart="whenNotActive" />
		</path>
		<path style=" stroke:none;fill-rule:nonzero;fill:#000;fill-opacity:1;" d="M 34.769531 2.890625 C 34.769531 1.324219 33.566406 0.0546875 32.09375 0.0546875 C 30.617188 0.0546875 29.414062 1.324219 29.414062 2.890625 L 29.414062 33.054688 C 29.414062 34.628906 30.617188 35.902344 32.09375 35.902344 C 33.566406 35.902344 34.769531 34.628906 34.769531 33.054688 Z M 34.769531 2.890625 ">
			<animateTransform attributeName="transform" type="translate" from="0 0" to="0 0" values="0 0; 0 8; 0 -8; 0 4; 0 0" keyTimes="0; 0.4; 0.8; 0.9; 1" begin="firstAnimation.begin+0.2s" dur="0.6s" restart="whenNotActive" />
		</path>
		<path style=" stroke:none;fill-rule:nonzero;fill:#000;fill-opacity:1;" d="M 49.480469 13.597656 C 49.480469 12.035156 48.277344 10.761719 46.800781 10.761719 C 45.324219 10.761719 44.121094 12.035156 44.121094 13.597656 L 44.121094 27.390625 C 44.121094 28.964844 45.324219 30.234375 46.800781 30.234375 C 48.277344 30.234375 49.480469 28.964844 49.480469 27.390625 Z M 49.480469 13.597656 ">
			<animateTransform attributeName="transform"  type="translate" from="0 0" to="0 0" values="0 0; 0 8; 0 -8; 0 4; 0 0" keyTimes="0; 0.4; 0.8; 0.9; 1" begin="firstAnimation.begin+0.3s" dur="0.6s" restart="whenNotActive" />
		</path>
		<path style=" stroke:none;fill-rule:nonzero;fill:#000;fill-opacity:1;" d="M 64.167969 21.425781 C 64.167969 19.859375 62.976562 18.589844 61.507812 18.589844 C 60.035156 18.589844 58.832031 19.859375 58.832031 21.425781 L 58.832031 27.386719 C 58.832031 28.964844 60.035156 30.234375 61.507812 30.234375 C 62.976562 30.234375 64.167969 28.964844 64.167969 27.386719 Z M 64.167969 21.425781 " />
		<path style=" stroke:none;fill-rule:nonzero;fill:#000;fill-opacity:1;" d="M 64.175781 21.425781 C 64.175781 19.859375 62.972656 18.589844 61.5 18.589844 C 60.023438 18.589844 58.820312 19.859375 58.820312 21.425781 L 58.820312 27.386719 C 58.820312 28.964844 60.023438 30.234375 61.5 30.234375 C 62.972656 30.234375 64.175781 28.964844 64.175781 27.386719 Z M 64.175781 21.425781 " />
		<path style=" stroke:none;fill-rule:nonzero;fill:#000;fill-opacity:1;" d="M 78.882812 13.597656 C 78.882812 12.035156 77.679688 10.761719 76.207031 10.761719 C 74.730469 10.761719 73.527344 12.035156 73.527344 13.597656 L 73.527344 27.390625 C 73.527344 28.964844 74.730469 30.234375 76.207031 30.234375 C 77.679688 30.234375 78.882812 28.964844 78.882812 27.390625 Z M 78.882812 13.597656 ">
			<animateTransform attributeName="transform" type="translate" from="0 0" to="0 0" values="0 0; 0 -8; 0 8; 0 4; 0 0" keyTimes="0; 0.4; 0.8; 0.9; 1" begin="firstAnimation.begin+0.3s" dur="0.6s" restart="whenNotActive" />
		</path>
		<path style=" stroke:none;fill-rule:nonzero;fill:#000;fill-opacity:1;" d="M 93.589844 2.890625 C 93.589844 1.324219 92.390625 0.0546875 90.914062 0.0546875 C 89.4375 0.0546875 88.234375 1.324219 88.234375 2.890625 L 88.234375 33.054688 C 88.234375 34.628906 89.4375 35.902344 90.914062 35.902344 C 92.390625 35.902344 93.589844 34.628906 93.589844 33.054688 Z M 93.589844 2.890625 ">
			<animateTransform attributeName="transform" type="translate" from="0 0" to="0 0" values="0 0; 0 -8; 0 8; 0 4; 0 0" keyTimes="0; 0.4; 0.8; 0.9; 1" begin="firstAnimation.begin+0.2s" dur="0.6s" restart="whenNotActive" />
		</path>
		<path style=" stroke:none;fill-rule:nonzero;fill:#000;fill-opacity:1;" d="M 108.300781 13.597656 C 108.300781 12.035156 107.097656 10.761719 105.621094 10.761719 C 104.148438 10.761719 102.945312 12.035156 102.945312 13.597656 L 102.945312 27.390625 C 102.945312 28.964844 104.148438 30.234375 105.621094 30.234375 C 107.097656 30.234375 108.300781 28.964844 108.300781 27.390625 Z M 108.300781 13.597656 ">
			<animateTransform attributeName="transform" type="translate" from="0 0" to="0 0" values="0 0; 0 -8; 0 8; 0 4; 0 0" keyTimes="0; 0.4; 0.8; 0.9; 1" begin="firstAnimation.begin+0.1s" dur="0.6s" restart="whenNotActive" />
		</path>
		<path style=" stroke:none;fill-rule:nonzero;fill:#000;fill-opacity:1;" d="M 122.992188 21.425781 C 122.992188 19.859375 121.796875 18.589844 120.328125 18.589844 C 118.855469 18.589844 117.652344 19.859375 117.652344 21.425781 L 117.652344 27.386719 C 117.652344 28.964844 118.855469 30.234375 120.328125 30.234375 C 121.796875 30.234375 122.992188 28.964844 122.992188 27.386719 Z M 122.992188 21.425781 ">
			<animateTransform attributeName="transform" type="translate" from="0 0" to="0 0" values="0 0; 0 -8; 0 8; 0 4; 0 0" keyTimes="0; 0.4; 0.8; 0.9; 1" begin="firstAnimation.begin+0s" dur="0.6s" restart="whenNotActive" />
		</path>
		<path style=" stroke:none;fill-rule:nonzero;fill:#000;fill-opacity:1;" d="M 119.914062 65.566406 L 119.914062 65.921875 L 118.960938 65.921875 L 118.960938 68.554688 L 118.570312 68.554688 L 118.570312 65.921875 L 117.609375 65.921875 L 117.609375 65.566406 Z M 119.914062 65.566406 " />
		<path style=" stroke:none;fill-rule:nonzero;fill:#000;fill-opacity:1;" d="M 120.113281 65.566406 L 120.726562 65.566406 L 121.570312 68.019531 L 121.582031 68.019531 L 122.398438 65.566406 L 123 65.566406 L 123 68.554688 L 122.597656 68.554688 L 122.597656 66.105469 L 122.585938 66.105469 L 121.730469 68.554688 L 121.359375 68.554688 L 120.527344 66.105469 L 120.507812 66.105469 L 120.507812 68.554688 L 120.113281 68.554688 Z M 120.113281 65.566406 " />
	</g>
	<defs>
		<script>
			setTimeout(
			function restartAnimationIcon() {
			const firstAnimates = document.querySelector('.icon-logo-cisco-aside-left');
			firstAnimates.beginElement();
			setTimeout(restartAnimationIcon, Math.floor((Math.random() * (20000 - 5000)) + 5000));
			}, Math.floor((Math.random() * (20000 - 5000)) + 5000),
			);
		</script>
	</defs>
</svg>
