<?xml version="1.0" encoding="UTF-8"?>
<svg xmlns="http://www.w3.org/2000/svg" xmlns:xlink="http://www.w3.org/1999/xlink" viewBox="0 0 175 150" version="1.1">
	<g id="surface1">
		<path style=" stroke:none;fill-rule:nonzero;fill:rgb(0%,0%,0%);fill-opacity:1;" d="M 0 119.375 L 0 98.5 L 11.75 98.5 C 18.375 98.5 24.125 98.875 25 99.25 C 26.375 100 26.5 101 26.5 113.875 C 26.5 130.625 26.75 130.125 18 130.125 C 11.125 130.125 11 130.25 11 136.375 L 11 140.125 L 0 140.125 Z M 14.75 114.375 C 14.75 105.875 14.5 103.875 13.625 103.625 C 11.625 102.875 10.875 105.75 10.875 114.25 C 10.875 123.375 11.25 124.75 13.25 124.75 C 14.75 124.75 14.75 124 14.75 114.375 Z M 31.125 138.75 C 30.625 137.875 30.375 129.75 30.375 117.875 L 30.375 98.5 L 42 98.5 L 42 115.375 C 42 128.25 42.25 132.625 43 133.625 C 45.375 136.875 45.875 134.25 45.875 116.25 L 45.875 98.5 L 57.5 98.5 L 57.5 118.5 C 57.5 133 57.25 138.75 56.625 139.375 C 56 140 52 140.25 43.75 140.25 C 32.875 140.25 31.875 140.125 31.125 138.75 Z M 61.5 120.25 C 61.5 105.75 61.75 100 62.375 99.375 C 63.75 98 100.375 98 101.75 99.375 C 102.375 100 102.625 105.75 102.625 120.25 L 102.625 140.25 L 91 140.25 L 91 122 C 91 105 90.875 103.75 89.625 104 C 88.375 104.25 88.25 105.875 88 122.25 L 87.75 140.25 L 76.25 140.25 L 76.25 122.5 C 76.25 108.75 76 104.625 75.25 104 C 72.75 102 72.375 104.625 72.375 122.625 L 72.375 140.25 L 61.5 140.25 Z M 107.375 120.125 C 107.375 101 107.5 100 108.875 99.25 C 111 98.125 131.75 98.25 132.875 99.375 C 133.5 100 133.875 105.75 133.875 120.25 L 133.875 140.25 L 122.25 140.25 L 122 135 C 121.875 131 121.5 129.75 120.625 129.75 C 119.75 129.75 119.375 131 119.25 135 L 119 140.25 L 107.375 140.25 Z M 121.75 114.25 C 121.75 105.875 121.5 104.25 120.625 104.25 C 119.625 104.25 119.375 105.875 119.25 113.5 C 119 123.25 119.25 125.125 120.875 124.625 C 121.5 124.375 121.75 121.5 121.75 114.25 Z M 121.75 114.25 " />
		<path style=" stroke:none;fill-rule:nonzero;fill:black;fill-opacity:1;" d="M 157.625 122.125 C 157.125 121.5 156.25 119.5 156.125 117.375 C 155.875 113.625 156.625 113.875 152 109.25 C 148.25 105.5 145.75 103 144.125 98.125 C 141.5 90.375 138 88.375 133.75 88.375 C 129.75 88.375 123.5 87.125 120.125 85.625 C 118.5 84.875 115.5 82.75 113.25 80.75 L 109.25 77.25 L 107.375 78.625 C 105 80.5 101.5 80.375 96.375 78.375 C 91.625 76.375 90.75 76.5 90.75 77.875 C 90.75 79.5 89.5 79.625 87.625 78.375 C 83.875 75.875 87 71.875 93.375 72.125 C 97.25 72.375 97.375 72.375 97.375 70.75 C 97.375 68.875 96.25 68.25 93 68.25 C 91.625 68.25 90.375 67.75 89.25 66.625 C 88.5 66.125 87.875 65.875 87.5 64.875 C 87.875 63.625 88.25 62.75 88.875 62.125 C 89.5 60.875 90.375 59.5 91.75 58.625 C 92.5 58.125 93.375 56.5 94 55.875 C 94.5 55.375 94.5 55.125 95.5 55.875 C 96.5 56.625 96.875 56.625 97.75 55.875 C 98.75 55.125 99 55.125 99.625 56 C 100.125 56.625 101.625 58.25 103.875 58.75 C 109.875 60.125 115.25 63.375 125 71.375 C 137.5 81.625 138.625 81.125 144.625 81.75 C 151.5 82.5 154.125 79.875 159.125 69 C 162.375 61.875 164.5 59.125 168.5 56.625 C 171.875 54.5 174.75 54.5 175 56.875 C 175.25 59.125 175.25 60.25 170.25 63.25 C 164.75 66.5 163.125 68.25 159.625 75.375 C 157.875 79 155.625 82.25 154.125 83.75 L 151.5 86.125 L 153.25 89.625 C 154.5 92.125 155 94.5 155.25 98.75 C 155.75 106.625 155.125 105.875 157.875 108.375 C 159.125 109.5 159.625 108.625 160.125 111 C 160.625 113.25 160.75 114.375 161.75 117.125 C 162.375 118.875 161.75 117.875 161.5 120.375 C 161.25 122.25 161.75 121.5 160.875 123.5 C 160.625 124.25 158.125 122.625 157.625 122.125 Z M 157.625 122.125 ">
			<animateMotion class="icon-logo-puma" id="firstAnimation" dur="2s"
            path="M0,0 C-35,-35 -70,-10 -225,-10"
			/>
			<animateTransform attributeName="transform" type="rotate" 
            from="0" to="-20" values="0;-5;-10;-15;-20;" 
            begin="firstAnimation.begin+0s" dur="2s" />
		</path>
		<path style=" stroke:none;fill-rule:nonzero;fill:rgb(0%,0%,0%);fill-opacity:1;" d="M 146.472656 141.640625 L 145.472656 141.640625 L 143.597656 139.515625 L 142.597656 139.515625 L 142.597656 141.640625 L 141.847656 141.640625 L 141.847656 136.140625 L 143.347656 136.140625 C 143.722656 136.140625 143.972656 136.140625 144.222656 136.140625 C 144.472656 136.140625 144.597656 136.265625 144.847656 136.390625 C 145.097656 136.515625 145.222656 136.640625 145.347656 136.890625 C 145.472656 137.140625 145.597656 137.390625 145.597656 137.640625 C 145.597656 138.015625 145.472656 138.390625 145.222656 138.640625 C 144.972656 138.890625 144.722656 139.140625 144.472656 139.265625 Z M 144.722656 137.640625 C 144.722656 137.515625 144.722656 137.390625 144.597656 137.265625 C 144.597656 137.140625 144.472656 137.015625 144.347656 136.890625 C 144.347656 136.890625 144.222656 136.890625 144.097656 136.890625 C 143.972656 136.890625 143.722656 136.890625 143.597656 136.890625 L 142.722656 136.890625 L 142.722656 138.890625 L 143.472656 138.890625 C 143.722656 138.890625 143.847656 138.890625 144.097656 138.890625 C 144.222656 138.890625 144.472656 138.765625 144.472656 138.640625 C 144.597656 138.515625 144.722656 138.390625 144.722656 138.265625 C 144.722656 138.015625 144.722656 137.890625 144.722656 137.640625 Z M 144.722656 137.640625 " />
		<path style="fill:none;stroke-width:1;stroke-linecap:butt;stroke-linejoin:miter;stroke:rgb(0%,0%,0%);stroke-opacity:1;stroke-miterlimit:4;" d="M 119.1 110.9 C 119.1 113 117.4 114.7 115.3 114.7 C 113.2 114.7 111.5 113 111.5 110.9 C 111.5 108.8 113.2 107.1 115.3 107.1 C 117.4 107.1 119.1 108.8 119.1 110.9 Z M 119.1 110.9 " transform="matrix(1.25,0,0,1.25,0,0)" />
	</g>
	<defs>
		<script>
			setTimeout(
			function restartAnimationIcon() {
			const animate = document.querySelector('.icon-logo-puma');
			animate.beginElement();
			setTimeout(restartAnimationIcon, Math.floor((Math.random() * (20000 - 5000)) + 5000));
			}, Math.floor((Math.random() * (20000 - 5000)) + 5000),
			);
		</script>
	</defs>
</svg>
