<svg version="1.1" id="Слой_1" xmlns="http://www.w3.org/2000/svg" xmlns:xlink="http://www.w3.org/1999/xlink" x="0px" y="0px"
	 viewBox="0 0 51.6 85.6" style="enable-background:new 0 0 51.6 85.6;" xml:space="preserve">
<defs>
		<style>
			.cls-12 {
			fill: url(#linear-gradient-icon-partners);
			}
		</style>
		<linearGradient x1="0%" y1="77%" id="linear-gradient-icon-partners">
			<stop offset="0" stop-color="#000">
			</stop>
			<stop offset="0" stop-color="#000">
				<animate class="icon-logo-apple" id="firstAnimation" attributeName="offset" restart="whenNotActive" from="0" to="1"  dur="2s" fill="freeze">
				</animate>
			</stop>
			<stop offset="0" stop-color="#ffd700">
				<animate attributeName="offset" begin="firstAnimation.begin+0s" restart="whenNotActive" from="0" to="1.2"  dur="2s" fill="freeze">
				</animate>
			</stop>
			<stop offset="0" stop-color="#ffd700">
				<animate attributeName="offset" begin="firstAnimation.begin+0s" restart="whenNotActive" from="0" to="1.2"  dur="2s" fill="freeze">
				</animate>
			</stop>
			<stop offset="0" stop-color="#000">
				<animate attributeName="offset" begin="firstAnimation.begin+0s" restart="whenNotActive" from="0" to="1.2"  dur="2s" fill="freeze">
				</animate>
			</stop>
			<stop offset="1.2" stop-color="#000">
			</stop>
		</linearGradient>
	</defs>
	<path class="cls-12" d="M49.7,72.4c-0.9,2.1-2,4-3.2,5.8c-1.7,2.4-3.1,4.1-4.1,5c-1.6,1.5-3.4,2.3-5.3,2.4c-1.4,0-3-0.4-4.9-1.2
		c-1.9-0.8-3.7-1.2-5.3-1.2c-1.7,0-3.5,0.4-5.4,1.2c-1.9,0.8-3.5,1.2-4.7,1.2c-1.8,0.1-3.6-0.7-5.4-2.4c-1.1-1-2.6-2.7-4.3-5.2
		c-1.8-2.6-3.4-5.7-4.6-9.1C1.3,65.1,0.7,61.5,0.7,58c0-4,0.9-7.5,2.6-10.4c1.4-2.3,3.2-4.2,5.4-5.5c2.3-1.4,4.7-2,7.3-2.1
		c1.4,0,3.3,0.4,5.7,1.3c2.3,0.9,3.8,1.3,4.5,1.3c0.5,0,2.1-0.5,5-1.6c2.7-1,4.9-1.4,6.8-1.2c5,0.4,8.7,2.4,11.2,6
		c-4.5,2.7-6.7,6.6-6.6,11.5c0,3.8,1.4,7,4.1,9.5c1.2,1.2,2.6,2.1,4.1,2.7C50.4,70.6,50,71.5,49.7,72.4z M38.2,26.8
		c0,3-1.1,5.8-3.2,8.4c-2.6,3.1-5.8,4.9-9.2,4.6c0-0.4-0.1-0.7-0.1-1.1c0-2.9,1.2-6,3.4-8.5c1.1-1.3,2.5-2.3,4.2-3.2
		c1.7-0.8,3.3-1.3,4.8-1.4C38.2,26,38.2,26.4,38.2,26.8z"/>
<defs>
	<script>setTimeout(
			function restartAnimationIcon() {
			const firstAnimates = document.querySelector('.icon-logo-apple');
			firstAnimates.beginElement();
			setTimeout(restartAnimationIcon, Math.floor((Math.random() * (20000 - 10000)) + 10000));
			}, Math.floor((Math.random() * (20000 - 10000)) + 10000),
			);
		</script>
</defs>
</svg>
