<svg xmlns="http://www.w3.org/2000/svg" xmlns:xlink="http://www.w3.org/1999/xlink" viewBox="0 0 139 58" version="1.1">
	<defs>
		<mask id="mask" x="0" y="0" width="100%" height="100%">
			<rect id="main-rect" width="100%" height="100%" fill="#000" />
			<path style="stroke:none;fill:#fff;fill-rule:nonzero;fill-opacity:1;" d="M 119.402344 25.195312 C 117.085938 25.726562 110.957031 26.015625 110.957031 26.015625 L 110.203125 28.40625 C 110.203125 28.40625 113.238281 28.152344 115.457031 28.367188 C 115.457031 28.367188 116.171875 28.308594 116.25 29.152344 C 116.289062 30.015625 116.191406 30.914062 116.191406 30.914062 C 116.191406 30.914062 116.132812 31.441406 115.398438 31.582031 C 114.546875 31.71875 108.796875 31.976562 108.796875 31.976562 L 107.863281 35.066406 C 107.863281 35.066406 107.527344 35.773438 108.300781 35.578125 C 109.015625 35.382812 115.042969 34.246094 115.832031 34.402344 C 116.667969 34.597656 117.621094 35.734375 117.34375 36.753906 C 117.023438 37.988281 110.996094 41.789062 107.347656 41.535156 C 107.347656 41.535156 105.425781 41.648438 103.820312 39.085938 C 102.273438 36.632812 104.355469 32.03125 104.355469 32.03125 C 104.355469 32.03125 103.421875 29.875 104.117188 29.09375 C 104.117188 29.09375 104.515625 28.757812 105.703125 28.660156 L 107.191406 25.644531 C 107.191406 25.644531 105.503906 25.746094 104.515625 24.53125 C 103.601562 23.355469 103.523438 22.84375 104.238281 22.527344 C 104.988281 22.136719 111.96875 20.902344 116.765625 21.0625 C 116.765625 21.0625 118.449219 20.863281 119.941406 23.746094 C 119.941406 23.746094 120.613281 24.921875 119.425781 25.195312 M 101.324219 36.792969 C 100.726562 38.222656 99.082031 39.730469 97.097656 38.808594 C 95.078125 37.871094 91.882812 31.441406 91.882812 31.441406 C 91.882812 31.441406 90.695312 29.054688 90.457031 29.132812 C 90.457031 29.132812 90.199219 28.660156 90.0625 31.289062 C 89.863281 33.890625 90.101562 38.964844 89.007812 39.769531 C 88.019531 40.550781 86.828125 40.222656 86.152344 39.300781 C 85.597656 38.378906 85.363281 36.164062 85.675781 32.304688 C 86.035156 28.449219 86.925781 24.332031 88.058594 23.058594 C 89.246094 21.765625 90.199219 22.707031 90.558594 23.058594 C 90.558594 23.058594 92.082031 24.429688 94.660156 28.488281 L 95.097656 29.230469 C 95.097656 29.230469 97.433594 33.089844 97.671875 33.070312 C 97.671875 33.070312 97.871094 33.265625 98.03125 33.109375 C 98.269531 33.050781 98.191406 31.796875 98.191406 31.796875 C 98.191406 31.796875 97.753906 27.621094 95.574219 20.570312 C 95.574219 20.570312 95.253906 19.667969 95.472656 18.808594 C 95.671875 18.023438 96.523438 18.414062 96.523438 18.414062 C 96.523438 18.414062 99.8125 19.984375 101.421875 25.269531 C 103.007812 30.5625 101.933594 35.363281 101.34375 36.792969 M 85.183594 23.214844 C 84.867188 23.765625 84.726562 24.53125 83.355469 24.742188 C 83.355469 24.742188 70.074219 25.664062 69.417969 26.585938 C 69.417969 26.585938 68.984375 27.132812 69.695312 27.273438 C 70.449219 27.429688 73.464844 27.820312 74.890625 27.898438 C 76.4375 27.898438 81.632812 27.9375 83.535156 30.25 C 83.535156 30.25 84.628906 31.347656 84.589844 33.832031 C 84.546875 36.382812 84.09375 37.28125 83.078125 38.203125 C 82.03125 39.066406 73.027344 43.0625 67.21875 36.949219 C 67.21875 36.949219 64.5625 34.011719 68.152344 31.777344 C 68.152344 31.777344 70.730469 30.210938 77.332031 32.03125 C 77.332031 32.03125 79.316406 32.734375 79.234375 33.460938 C 79.117188 34.246094 77.585938 35.027344 75.367188 34.988281 C 73.226562 34.929688 71.640625 33.910156 71.957031 34.089844 C 72.253906 34.1875 69.636719 32.835938 68.828125 33.753906 C 68.03125 34.617188 68.230469 35.128906 69.023438 35.65625 C 71.007812 36.792969 78.796875 36.382812 81.117188 33.8125 C 81.117188 33.8125 82.050781 32.777344 80.640625 31.933594 C 79.253906 31.148438 75.207031 30.660156 73.644531 30.601562 C 72.15625 30.523438 66.582031 30.601562 65.753906 29.171875 C 65.753906 29.171875 64.957031 28.152344 65.832031 25.371094 C 66.742188 22.429688 73.226562 21.292969 76.042969 21.0625 C 76.042969 21.0625 83.773438 20.746094 85.222656 22.316406 C 85.222656 22.316406 85.421875 22.667969 85.183594 23.195312 M 63.253906 40.4375 C 62.320312 41.121094 60.339844 40.828125 59.765625 40.042969 C 59.207031 39.359375 59.007812 36.652344 59.109375 32.40625 C 59.246094 28.054688 59.308594 22.726562 60.300781 21.863281 C 61.289062 21.023438 61.886719 21.765625 62.28125 22.335938 C 62.679688 22.921875 63.195312 23.566406 63.273438 24.921875 C 63.394531 26.292969 63.730469 33.34375 63.730469 33.34375 C 63.730469 33.34375 64.164062 39.769531 63.273438 40.4375 M 65.238281 17.515625 C 62.5 18.433594 60.636719 18.140625 59.050781 17.457031 C 58.359375 18.691406 57.941406 19.0625 57.425781 19.140625 C 56.632812 19.21875 55.9375 17.964844 55.835938 17.574219 C 55.679688 17.277344 55.304688 16.75 55.757812 15.558594 C 54.210938 14.183594 54.09375 12.339844 54.371094 11.105469 C 54.730469 9.660156 57.347656 4.214844 65.277344 3.566406 C 65.277344 3.566406 69.164062 3.289062 69.835938 5.332031 L 69.953125 5.332031 C 69.953125 5.332031 73.722656 5.332031 73.644531 8.660156 C 73.644531 11.992188 69.476562 16.140625 65.238281 17.574219 M 68.765625 8.03125 C 66.269531 8.421875 62.421875 11.714844 60.578125 14.441406 C 63.414062 14.949219 68.371094 14.753906 70.589844 10.324219 C 70.589844 10.324219 71.640625 7.542969 68.765625 8.03125 M 57.800781 10.1875 C 57.007812 11.460938 56.96875 12.222656 57.347656 12.734375 C 58.277344 11.363281 59.921875 9.207031 62.402344 7.523438 C 60.5 7.71875 58.890625 8.503906 57.800781 10.1875 M 125.351562 40.300781 C 123.527344 44.726562 121.980469 49.210938 121.085938 55.933594 C 121.085938 55.933594 120.890625 57.246094 119.800781 56.816406 C 118.710938 56.421875 116.925781 54.65625 116.527344 52.171875 C 116.132812 48.921875 117.601562 43.433594 120.59375 37.125 C 119.722656 35.753906 119.105469 33.714844 119.601562 30.859375 C 119.601562 30.859375 120.398438 25.566406 125.75 20.785156 C 125.75 20.785156 126.382812 20.257812 126.738281 20.433594 C 127.175781 20.632812 126.996094 22.316406 126.640625 23.175781 C 126.320312 24 123.941406 28.074219 123.941406 28.074219 C 123.941406 28.074219 122.457031 30.859375 122.875 33.03125 C 125.691406 28.757812 132.09375 20.101562 136.058594 22.84375 C 138.578125 24.609375 138.578125 30.289062 136.695312 33.582031 C 135.207031 36.183594 131.003906 41.574219 125.394531 40.320312 M 133.640625 26.996094 C 132.171875 28.566406 129.554688 31.539062 127.492188 35.578125 C 129.671875 35.34375 131.792969 34.148438 132.449219 33.542969 C 133.5 32.617188 135.921875 30.132812 135.542969 26.839844 C 135.542969 26.839844 135.304688 25.117188 133.640625 26.996094 M 44.8125 42.613281 C 37.796875 44.726562 31.175781 43.75 27.566406 42.804688 C 27.464844 44.257812 27.308594 44.863281 27.070312 45.097656 C 26.792969 45.414062 24.492188 46.707031 23.222656 44.863281 C 22.667969 43.980469 22.390625 42.394531 22.230469 40.945312 C 14.101562 37.300781 10.335938 31.933594 10.214844 31.738281 C 10.015625 31.539062 8.175781 29.644531 10.015625 27.292969 C 11.746094 25.175781 17.453125 23.039062 22.570312 22.199219 C 22.769531 17.886719 23.242188 14.554688 23.855469 13.085938 C 24.589844 11.324219 25.523438 12.890625 26.355469 14.066406 C 27.03125 14.949219 27.445312 18.730469 27.484375 21.746094 C 30.816406 21.589844 32.839844 21.824219 36.546875 22.527344 C 41.425781 23.355469 44.675781 25.820312 44.417969 28.601562 C 44.179688 31.347656 41.644531 32.484375 40.652344 32.5625 C 39.65625 32.636719 38.074219 31.914062 38.074219 31.914062 C 36.960938 31.40625 37.972656 30.933594 39.265625 30.382812 C 40.691406 29.703125 40.371094 29.015625 40.371094 29.015625 C 39.855469 27.449219 33.535156 26.40625 27.246094 26.40625 C 27.246094 29.835938 27.386719 35.519531 27.484375 38.828125 C 31.886719 39.652344 35.179688 39.476562 35.179688 39.476562 C 35.179688 39.476562 51.238281 39.027344 51.695312 28.898438 C 52.191406 18.75 35.636719 9.03125 23.441406 5.972656 C 11.269531 2.820312 4.367188 5.054688 3.773438 5.351562 C 3.117188 5.660156 3.714844 5.78125 3.714844 5.78125 C 3.714844 5.78125 4.367188 5.878906 5.558594 6.269531 C 6.75 6.660156 5.796875 7.246094 5.796875 7.246094 C 3.714844 7.953125 1.390625 7.542969 0.9375 6.601562 C 0.480469 5.679688 1.238281 4.835938 2.125 3.605469 C 2.960938 2.332031 3.914062 2.371094 3.914062 2.371094 C 18.980469 -2.820312 37.378906 6.488281 37.378906 6.488281 C 54.589844 15.0625 57.523438 25.15625 57.207031 29.074219 C 56.929688 32.933594 55.421875 39.457031 44.8125 42.632812 M 11.703125 28.601562 C 9.996094 29.386719 11.1875 30.640625 11.1875 30.640625 C 14.402344 34.03125 18.324219 36.164062 22.09375 37.5 C 22.53125 31.621094 22.492188 29.523438 22.492188 26.566406 C 16.660156 26.957031 13.289062 27.898438 11.703125 28.601562 " />
		</mask>
	</defs>
	<rect fill="#000" x="0" y="-100%" width="100%" height="100%" mask="url(#mask)">
		<animate attributeName="y" from="-100%" to="-100%" values="-100%; -50%; 0; -50%; -100%" dur="2s" restart="whenNotActive" begin="firstAnimation.begin+0.2s" />
	</rect>
	<rect fill="#000" x="0" y="0%" width="100%" height="100%" mask="url(#mask)">
		<animate class="icon-logo-disney" id="firstAnimation" attributeName="y" from="0%" to="0%" values="0%; 50%; 100%; 50%; 0%" dur="2.5s" restart="whenNotActive" />
	</rect>
	<defs>
		<script>
			setTimeout(
			function restartAnimationIcon() {
			const animates = document.querySelectorAll('.icon-logo-disney');
			animates.forEach((item) => {
			item.beginElement();
			});
			setTimeout(restartAnimationIcon, Math.floor((Math.random() * (20000 - 5000)) + 5000));
			}, Math.floor((Math.random() * (20000 - 5000)) + 5000),
			);
		</script>
	</defs>
</svg>
