<svg version="1.1" id="Слой_1" xmlns="http://www.w3.org/2000/svg" xmlns:xlink="http://www.w3.org/1999/xlink" x="0px" y="0px" viewBox="0 0 148 138.3" style="enable-background:new 0 0 148 138.3;" xml:space="preserve">
	<style type="text/css">
		.st0{fill-rule:evenodd;clip-rule:evenodd;}
	</style>
	<g id="surface1">
		<g id="str">
			<path class="st0" d="M91.2,115.9c-8.2,6.1-20.1,9.4-30.3,9.4c-14.3,0-27.2-5.4-37-14.3c-0.8-0.7-0.1-1.7,0.8-1.1
			c10.5,6.2,23.6,9.9,37,9.9c9.1,0,19.1-1.9,28.2-5.9C91.4,113.4,92.5,114.9,91.2,115.9" />
			<path class="st0" d="M94.6,112c-1-1.4-6.9-0.6-9.6-0.3c-0.8,0.1-0.9-0.6-0.2-1.1c4.7-3.3,12.4-2.4,13.3-1.3
			c0.9,1.1-0.2,8.9-4.6,12.7c-0.7,0.6-1.3,0.3-1-0.5C93.4,119,95.6,113.3,94.6,112" />
			<animateMotion begin="0s" calcMode="linear" class="icon-logo-amazon" dur="2s" fill="freeze" id="firstAnimation" keyPoints="0;0.4;0.8;0.1;0.1;0.1;0.1;0.1" keyTimes="0;0.7;0.75;0.80;0.85;0.90;0.95;1" path="M0,02-10,0-0,0-1,0-0,0-1,0-0,0-1,0-0" restart="always">
			</animateMotion>
			<animateTransform attributeName="transform" begin="firstAnimation.begin+0s" calcMode="linear" dur="1.8s" fill="remove" from="0" keyTimes="0;0.8;0.85;0.9;0.95;1" restart="always" to="0" type="rotate" values="0;6;1;0;1;0">
			</animateTransform>
		</g>
		<path class="st0" d="M85.2,87v-3.2c0-0.5,0.4-0.8,0.8-0.8h14.3c0.5,0,0.8,0.3,0.8,0.8v2.8c0,0.5-0.4,1.1-1.1,2l-7.4,10.8
		c2.8-0.1,5.7,0.3,8.2,1.8c0.6,0.3,0.7,0.8,0.8,1.3v3.5c0,0.5-0.5,1-1.1,0.7c-4.4-2.3-10.3-2.6-15.2,0c-0.5,0.3-1-0.3-1-0.7v-3.3
		c0-0.5,0-1.4,0.5-2.2l8.6-12.5H86C85.6,87.8,85.2,87.5,85.2,87" />
		<path class="st0" d="M32.9,107.2h-4.4c-0.4,0-0.8-0.3-0.8-0.8V83.8c0-0.5,0.4-0.8,0.8-0.8h4.1c0.4,0,0.8,0.3,0.8,0.8v3h0.1
		c1.1-2.9,3.1-4.2,5.7-4.2c2.7,0,4.4,1.3,5.7,4.2c1.1-2.9,3.5-4.2,6-4.2c1.8,0,3.8,0.8,5.1,2.5c1.4,1.9,1.1,4.7,1.1,7.1l0,14.3
		c0,0.5-0.4,0.8-0.8,0.8h-4.4c-0.4,0-0.8-0.4-0.8-0.8v-12c0-1,0.1-3.3-0.1-4.3c-0.3-1.5-1.3-2-2.6-2c-1.1,0-2.2,0.7-2.6,1.9
		s-0.4,3.1-0.4,4.3v12c0,0.5-0.4,0.8-0.8,0.8h-4.4c-0.4,0-0.8-0.4-0.8-0.8l0-12c0-2.5,0.4-6.3-2.7-6.3c-3.1,0-3,3.6-3,6.3v12
		C33.7,106.9,33.4,107.2,32.9,107.2" />
		<path class="st0" d="M113.5,82.5c6.5,0,10,5.6,10,12.8c0,6.9-3.9,12.4-10,12.4c-6.4,0-9.8-5.6-9.8-12.7
		C103.7,88,107.2,82.5,113.5,82.5 M113.6,87.1c-3.2,0-3.4,4.4-3.4,7.2c0,2.8,0,8.7,3.4,8.7c3.4,0,3.5-4.8,3.5-7.7
		c0-1.9-0.1-4.2-0.7-6C115.9,87.7,115,87.1,113.6,87.1" />
		<path class="st0" d="M131.9,107.2h-4.3c-0.4,0-0.8-0.4-0.8-0.8l0-22.7c0-0.4,0.4-0.7,0.8-0.7h4c0.4,0,0.7,0.3,0.8,0.6v3.5h0.1
		c1.2-3.1,2.9-4.6,5.9-4.6c2,0,3.9,0.7,5.1,2.7c1.1,1.8,1.1,4.9,1.1,7.1v14.3c-0.1,0.4-0.4,0.7-0.8,0.7h-4.4c-0.4,0-0.7-0.3-0.8-0.7
		V94.2c0-2.5,0.3-6.1-2.7-6.1c-1.1,0-2,0.7-2.5,1.8c-0.6,1.4-0.7,2.8-0.7,4.3v12.2C132.8,106.9,132.4,107.2,131.9,107.2" />
		<path class="st0" d="M73.8,96.4c0,1.7,0,3.2-0.8,4.7c-0.7,1.2-1.8,2-3,2c-1.7,0-2.7-1.3-2.7-3.2c0-3.8,3.3-4.4,6.5-4.4V96.4
		 M78.2,107.2c-0.3,0.3-0.7,0.3-1,0.1c-1.4-1.2-1.7-1.8-2.5-2.9c-2.4,2.5-4.1,3.2-7.2,3.2c-3.7,0-6.5-2.3-6.5-6.9
		c0-3.6,1.9-6,4.7-7.2c2.4-1.1,5.7-1.2,8.2-1.5v-0.6c0-1.1,0.1-2.3-0.5-3.2c-0.5-0.8-1.5-1.2-2.4-1.2c-1.7,0-3.1,0.9-3.5,2.7
		c-0.1,0.4-0.4,0.8-0.8,0.8L62.3,90c-0.4-0.1-0.8-0.4-0.7-0.9c1-5.2,5.6-6.8,9.8-6.8c2.1,0,4.9,0.6,6.6,2.2c2.1,2,1.9,4.7,1.9,7.6
		V99c0,2.1,0.8,3,1.6,4.1c0.3,0.4,0.3,0.9,0,1.2C80.6,105,79.1,106.4,78.2,107.2L78.2,107.2" />
		<path class="st0" d="M16.6,96.4c0,1.7,0,3.2-0.8,4.7c-0.7,1.2-1.8,2-3,2c-1.7,0-2.7-1.3-2.7-3.2c0-3.8,3.3-4.4,6.5-4.4V96.4
		 M21,107.2c-0.3,0.3-0.7,0.3-1,0.1c-1.4-1.2-1.7-1.8-2.5-2.9c-2.4,2.5-4.1,3.2-7.2,3.2c-3.7,0-6.5-2.3-6.5-6.9c0-3.6,1.9-6,4.7-7.2
		c2.4-1.1,5.7-1.2,8.2-1.5v-0.6c0-1.1,0.1-2.3-0.5-3.2c-0.5-0.8-1.6-1.2-2.4-1.2c-1.7,0-3.1,0.9-3.5,2.7C10,90,9.7,90.4,9.3,90.4
		L5.1,90c-0.4-0.1-0.8-0.4-0.7-0.9c1-5.2,5.6-6.8,9.8-6.8c2.1,0,4.9,0.6,6.6,2.2c2.1,2,1.9,4.7,1.9,7.6V99c0,2.1,0.8,3,1.6,4.1
		c0.3,0.4,0.3,0.9,0,1.2C23.4,105,21.9,106.4,21,107.2L21,107.2" />
	</g>
	<defs>
		<script>
			setTimeout(
			function restartAnimationIcon() {
			const animate = document.querySelector('.icon-logo-amazon');
			animate.beginElement();
			setTimeout(restartAnimationIcon, Math.floor((Math.random() * (20000 - 5000)) + 5000));
			}, Math.floor((Math.random() * (20000 - 5000)) + 5000),
			);
		</script>
	</defs>
</svg>
