<svg class="our-partners-content-item" id="icon-logo-adidas" version="1.1" xmlns="http://www.w3.org/2000/svg" xmlns:xlink="http://www.w3.org/1999/xlink" x="0px" y="0px" viewBox="0 0 115 78" style="enable-background:new 0 0 115 78;" xml:space="preserve">
	<defs>
		<style>
			.cls-12 {
			fill: url(#linear-gradient-icon-partners);
			}
		</style>
		<linearGradient id="linear-gradient-icon-partners">
			<stop offset="0" stop-color="#000">
			</stop>
			<stop offset="0" stop-color="#000">
				<animate id="firstAnimation" class="icon-logo-adidas" attributeName="offset" restart="whenNotActive" from="0" to="1" dur="2s" fill="freeze">
				</animate>
			</stop>
			<stop offset="0" stop-color="#fff">
				<animate attributeName="offset" restart="whenNotActive" from="0" to="1.2" begin="firstAnimation.begin+0s" dur="2s" fill="freeze">
				</animate>
			</stop>
			<stop offset="0" stop-color="#fff">
				<animate attributeName="offset" restart="whenNotActive" from="0" to="1.2" begin="firstAnimation.begin+0s" dur="2s" fill="freeze">
				</animate>
			</stop>
			<stop offset="0" stop-color="#000">
				<animate attributeName="offset" restart="whenNotActive" from="0" to="1.2" begin="firstAnimation.begin+0s" dur="2s" fill="freeze">
				</animate>
			</stop>
			<stop offset="1.2" stop-color="#000">
			</stop>
		</linearGradient>
	</defs>
	<g id="surface1">
		<path d="M105.9,77.9c-5.3,0-8.5-2.7-8.8-6.7h5.1c0,1.3,0.7,3.1,3.9,3.2c2.2,0,3.4-1.3,3.4-2.3c-0.2-1.5-2.2-1.6-4.1-2
										c-2.2-0.3-3.9-0.8-5.1-1.3c-1.7-0.9-2.7-2.8-2.7-4.7c0-3.5,2.9-6.3,8-6.3c4.9,0,8,2.5,8.3,6.4H109c0-1-0.2-2.6-3.2-2.6
										c-1.9,0-3.2,0.3-3.4,1.8c0,2,4.1,1.9,7.3,2.6c2.9,0.8,4.9,2.6,4.9,5.3C114.6,76,110.7,77.9,105.9,77.9" />
		<path class="cls-12" d="M12.8,45.4l16.8-9.8l9,15.5H15.9" />
		<path d="M5,67.8c0,3.1,2.7,5.6,5.6,5.6c3.2,0,5.6-2.5,5.6-5.6c0-3-2.4-5.6-5.6-5.6C7.7,62.2,5,64.8,5,67.8 M10.3,77.9
									c-5.3,0-10-4.5-10-10.1c0-5.6,4.6-10,10-10c2.2,0,4.1,0.6,5.8,1.8V58H21v19.4h-4.9v-1.2C14.7,77.3,12.5,77.9,10.3,77.9" />
		<path class="cls-12" d="M75.2,51.1L51.9,10.3l16.8-9.9l29.2,50.8" />
		<path class="cls-12" d="M32.5,28l17-9.7l18.7,32.8H50.4V56h-4.9v-4.8" />
		<path d="M111.5,56.1c-1.2,0-2.4-1.1-2.4-2.4c0-1.3,1.2-2.4,2.4-2.4c1.5,0,2.4,1.1,2.4,2.4C113.9,55,112.9,56.1,111.5,56.1
		 								M111.5,51.6c-1.2,0-1.9,1-1.9,2.1c0,1.1,0.7,2.1,1.9,2.1c1.2,0,1.9-1,1.9-2.1C113.4,52.6,112.7,51.6,111.5,51.6" />
		<path d="M112,55l-0.5-1.1H111V55h-0.4v-2.6h1.1c0.2,0,0.7,0.3,0.7,0.8s-0.2,0.7-0.5,0.8l0.5,1.1 M111.5,52.7H111v0.9h0.5
										c0.5,0,0.5-0.1,0.5-0.4C112,52.9,112,52.7,111.5,52.7" />
		<path d="M79.4,67.8c0,3.1,2.4,5.6,5.6,5.6c2.9,0,5.6-2.5,5.6-5.6c0-3-2.7-5.6-5.6-5.6C81.8,62.2,79.4,64.8,79.4,67.8 M84.7,77.9
									c-5.6,0-10-4.5-10-10.1c0-5.6,4.4-10,10-10c2.2,0,4.1,0.6,5.8,1.8V58h4.6v19.4h-4.6v-1.2C88.8,77.3,86.9,77.9,84.7,77.9" />
		<path d="M57,67.8c0,3.1,2.7,5.6,5.6,5.6c3.2,0,5.6-2.5,5.6-5.6c0-3-2.4-5.6-5.6-5.6C59.7,62.2,57,64.8,57,67.8 M68.2,51.3H73v26.1
										h-4.9v-1.2c-1.5,1.1-3.4,1.7-5.6,1.7c-5.6,0-10.2-4.5-10.2-10.1c0-5.6,4.6-10,10.2-10c2.2,0,4.1,0.6,5.6,1.8V51.3z" />
		<path d="M26.7,67.8c0,3.1,2.7,5.6,5.6,5.6c3.2,0,5.6-2.5,5.6-5.6c0-3-2.4-5.6-5.6-5.6C29.4,62.2,26.7,64.8,26.7,67.8 M37.9,51.3
										h4.9v26.1h-4.9v-1.2c-1.5,1.1-3.4,1.7-5.6,1.7c-5.6,0-10.2-4.5-10.2-10.1c0-5.6,4.6-10,10.2-10c2.2,0,4.1,0.6,5.6,1.8V51.3z" />
	</g>
	<rect x="45.6" y="58.4" width="4.7" height="18.9" />
	<defs>
		<script>
			setTimeout(
			function restartAnimationIcon() {
			const animate = document.querySelector('.icon-logo-adidas');
			animate.beginElement();
			setTimeout(restartAnimationIcon, Math.floor((Math.random() * (20000 - 5000)) + 5000));
			}, Math.floor((Math.random() * (20000 - 5000)) + 5000),
			);
		</script>
	</defs>
</svg>
